<svg xmlns="http://www.w3.org/2000/svg" version="1.1" xmlns:xlink="http://www.w3.org/1999/xlink" xmlns:svgjs="http://svgjs.dev/svgjs" width="1500" height="253" viewBox="0 0 1500 253"><g transform="matrix(1,0,0,1,25.98989464546287,-1.1927952463300358)"><svg viewBox="0 0 396 67" data-background-color="#d0def9" preserveAspectRatio="xMidYMid meet" height="253" width="1500" xmlns="http://www.w3.org/2000/svg" xmlns:xlink="http://www.w3.org/1999/xlink"><g id="tight-bounds" transform="matrix(1,0,0,1,0.24459995598181195,0.31587858302020777)"><svg viewBox="0 0 395.52 66.36824283395961" height="66.36824283395961" width="395.52"><g><svg viewBox="0 0 492.76631782939035 82.68617172860311" height="66.36824283395961" width="395.52"><g transform="matrix(1,0,0,1,97.24631782939036,10.502465021729492)"><svg viewBox="0 0 395.52 61.68124168514413" height="61.68124168514413" width="395.52"><g id="textblocktransform"><svg viewBox="0 0 395.52 61.68124168514413" height="61.68124168514413" width="395.52" id="textblock"><g><svg viewBox="0 0 395.52 61.68124168514413" height="61.68124168514413" width="395.52"><g transform="matrix(1,0,0,1,0,0)"><svg width="395.52" viewBox="4.1 -31.2 202.93 31.65" height="61.68124168514413" data-palette-color="#ff511a"><path d="M4.1 0L4.1-30.7 7.25-30.7 7.25-16.35 22.35-16.35 22.35-30.7 25.5-30.7 25.5 0 22.35 0 22.35-13.4 7.25-13.4 7.25 0 4.1 0ZM33.8 0L33.8-30.7 36.95-30.7 36.95 0 33.8 0ZM53.35 0Q50.55-6.2 47.85-14.48 45.15-22.75 43.15-30.75L43.15-30.75 46.5-31Q48.15-23.9 50.7-15.85 53.25-7.8 55.3-3L55.3-3 56.05-3Q58.09-7.8 60.65-15.85 63.2-23.9 64.84-31L64.84-31 68.2-30.75Q66.3-22.9 63.57-14.58 60.85-6.25 58 0L58 0 53.35 0ZM84.54 0.45Q79.79 0.45 77.04-0.5 74.29-1.45 74.29-3.7L74.29-3.7 74.29-30.7 92.84-30.7 92.84-27.8 77.39-27.8 77.39-16.8 91.39-16.8 91.39-14 77.39-14 77.39-3.05Q80.59-2.45 84.69-2.45L84.69-2.45Q89.19-2.45 92.69-3.25L92.69-3.25 93.39-0.5Q89.79 0.45 84.54 0.45L84.54 0.45ZM108.84 0.45Q103.59 0.45 99.09-1.8L99.09-1.8 100.19-4.55Q102.34-3.5 104.49-3.03 106.64-2.55 109.14-2.55L109.14-2.55Q112.39-2.55 115.04-3.55L115.04-3.55Q115.84-5.3 115.84-7.75L115.84-7.75Q115.84-10.3 114.34-11.6 112.84-12.9 109.14-13.85L109.14-13.85Q104.64-14.95 102.19-16.78 99.74-18.6 99.74-22.35L99.74-22.35Q99.74-26.25 102.04-28.73 104.34-31.2 109.74-31.2L109.74-31.2Q112.54-31.2 114.44-30.73 116.34-30.25 118.04-29.3L118.04-29.3 118.04-27.75Q118.04-25.85 117.29-23.5L117.29-23.5 115.09-23.5 114.59-27.95Q111.39-28.35 109.44-28.35L109.44-28.35Q105.89-28.35 104.39-27 102.89-25.65 102.89-22.75L102.89-22.75Q102.89-21.05 103.59-19.98 104.29-18.9 105.82-18.2 107.34-17.5 110.09-16.85L110.09-16.85Q114.84-15.75 116.94-13.93 119.04-12.1 119.04-8.7L119.04-8.7Q119.04-4.65 116.74-2.1 114.44 0.45 108.84 0.45L108.84 0.45ZM134.89 0L134.89-11.05 133.89-11.05Q130.64-15.25 127.99-19.83 125.34-24.4 122.94-30.1L122.94-30.1 126.09-30.95Q128.04-26.1 130.54-21.58 133.04-17.05 135.59-13.55L135.59-13.55 137.34-13.55Q139.89-17.1 142.36-21.6 144.84-26.1 146.79-30.95L146.79-30.95 149.94-30.1Q147.54-24.4 144.91-19.83 142.29-15.25 138.99-11.05L138.99-11.05 138.04-11.05 138.04 0 134.89 0ZM154.84 0L154.84-30.7 158.39-30.7 174.39-4.8 174.79-4.9 174.34-14.4 174.34-30.7 177.49-30.7 177.49 0 173.94 0 157.94-25.9 157.59-25.8 157.99-16.3 157.99 0 154.84 0ZM197.43 0.45Q184.43 0.45 184.43-14.55L184.43-14.55Q184.43-22.1 187.61-26.65 190.78-31.2 197.18-31.2L197.18-31.2Q199.73-31.2 202.11-30.65 204.48-30.1 205.83-29.25L205.83-29.25 205.83-26.95Q205.83-24.95 205.28-23.6L205.28-23.6 203.23-23.6 202.73-27.7Q200.43-28.25 197.13-28.25L197.13-28.25Q194.03-28.25 190.93-27.4L190.93-27.4Q187.58-22.4 187.58-14.75L187.58-14.75Q187.58-8.4 189.96-5.45 192.33-2.5 197.53-2.5L197.53-2.5Q199.88-2.5 202.01-3.05 204.13-3.6 205.58-4.55L205.58-4.55 207.03-2.2Q205.43-0.9 202.96-0.23 200.48 0.45 197.43 0.45L197.43 0.45Z" opacity="1" transform="matrix(1,0,0,1,0,0)" fill="#ff511a" class="wordmark-text-0" data-fill-palette-color="primary" id="text-0"></path></svg></g></svg></g></svg></g></svg></g><g><svg viewBox="0 0 82.68485701732828 82.68617172860311" height="82.68617172860311" width="82.68485701732828"><g><svg xmlns="http://www.w3.org/2000/svg" xmlns:xlink="http://www.w3.org/1999/xlink" version="1.1" x="0" y="0" viewBox="19.499985816758073 19.5 62.00001418324193 62.001000000000005" enable-background="new 0 0 100 100" xml:space="preserve" height="82.68617172860311" width="82.68485701732828" class="icon-icon-0" data-fill-palette-color="accent" id="icon-0"><g fill="#ff511a" data-fill-palette-color="accent"><path d="M46.964 47.671L50.009 50.716 53.75 36.75 39.784 40.491 43.429 44.136 26.686 60.88A25.8 25.8 0 0 1 24.5 50.5C24.5 36.164 36.164 24.5 50.5 24.5 57.812 24.5 64.424 27.538 69.152 32.413L72.686 28.879C67.052 23.099 59.19 19.5 50.5 19.5 33.407 19.5 19.5 33.407 19.5 50.5A30.84 30.84 0 0 0 25.61 68.956L27.131 67.435 27.166 67.47z" fill="#ff511a" data-fill-palette-color="accent"></path><path d="M75.89 32.746L72.292 36.344C72.311 36.373 72.327 36.404 72.346 36.433L54.036 54.742 50.284 50.99 46.543 64.956 60.509 61.215 57.571 58.277 74.737 41.111A25.8 25.8 0 0 1 76.5 50.5C76.5 64.837 64.837 76.5 50.5 76.5 43.493 76.5 37.13 73.709 32.449 69.187L28.915 72.721C34.501 78.149 42.114 81.501 50.5 81.501 67.594 81.501 81.5 67.595 81.5 50.501 81.5 43.899 79.42 37.779 75.89 32.746" fill="#ff511a" data-fill-palette-color="accent"></path></g></svg></g></svg></g></svg></g><defs></defs></svg><rect width="395.52" height="66.36824283395961" fill="none" stroke="none" visibility="hidden"></rect></g></svg></g></svg>