<svg xmlns="http://www.w3.org/2000/svg" version="1.1" xmlns:xlink="http://www.w3.org/1999/xlink" xmlns:svgjs="http://svgjs.dev/svgjs" width="128" height="128" viewBox="0 0 128 128"><g transform="matrix(0.8046875,0,0,0.8046875,12.13200931689282,13.030615966796873)"><svg viewBox="0 0 97 96" data-background-color="#d0def9" preserveAspectRatio="xMidYMid meet" height="126" width="128" xmlns="http://www.w3.org/2000/svg" xmlns:xlink="http://www.w3.org/1999/xlink"><g id="tight-bounds" transform="matrix(1,0,0,1,1.029398125514902,0.25950000000000273)"><svg viewBox="0 0 95.47948185077857 95.481" height="95.481" width="95.47948185077857"><g><svg viewBox="0 0 95.47948185077857 95.481" height="95.481" width="95.47948185077857"><g><svg viewBox="0 0 95.47948185077857 95.481" height="95.481" width="95.47948185077857"><g id="textblocktransform"><svg viewBox="0 0 95.47948185077857 95.481" height="95.481" width="95.47948185077857" id="textblock"><g><svg viewBox="0 0 95.47948185077857 95.481" height="95.481" width="95.47948185077857"><g><svg viewBox="0 0 95.47948185077857 95.481" height="95.481" width="95.47948185077857"><g><svg xmlns="http://www.w3.org/2000/svg" xmlns:xlink="http://www.w3.org/1999/xlink" version="1.1" x="0" y="0" viewBox="19.499985816758073 19.5 62.00001418324193 62.001000000000005" enable-background="new 0 0 100 100" xml:space="preserve" height="95.481" width="95.47948185077857" class="icon-icon-0" data-fill-palette-color="accent" id="icon-0"><g fill="#ff511a" data-fill-palette-color="accent"><path d="M46.964 47.671L50.009 50.716 53.75 36.75 39.784 40.491 43.429 44.136 26.686 60.88A25.8 25.8 0 0 1 24.5 50.5C24.5 36.164 36.164 24.5 50.5 24.5 57.812 24.5 64.424 27.538 69.152 32.413L72.686 28.879C67.052 23.099 59.19 19.5 50.5 19.5 33.407 19.5 19.5 33.407 19.5 50.5A30.84 30.84 0 0 0 25.61 68.956L27.131 67.435 27.166 67.47z" fill="#ff511a" data-fill-palette-color="accent"></path><path d="M75.89 32.746L72.292 36.344C72.311 36.373 72.327 36.404 72.346 36.433L54.036 54.742 50.284 50.99 46.543 64.956 60.509 61.215 57.571 58.277 74.737 41.111A25.8 25.8 0 0 1 76.5 50.5C76.5 64.837 64.837 76.5 50.5 76.5 43.493 76.5 37.13 73.709 32.449 69.187L28.915 72.721C34.501 78.149 42.114 81.501 50.5 81.501 67.594 81.501 81.5 67.595 81.5 50.501 81.5 43.899 79.42 37.779 75.89 32.746" fill="#ff511a" data-fill-palette-color="accent"></path></g></svg></g></svg></g></svg></g></svg></g></svg></g></svg></g><defs></defs></svg><rect width="95.47948185077857" height="95.481" fill="none" stroke="none" visibility="hidden"></rect></g></svg></g></svg>